<svg width="46" height="46" viewBox="0 0 46 46" fill="none" xmlns="http://www.w3.org/2000/svg">
<path fill-rule="evenodd" clip-rule="evenodd" d="M24.6429 0H21.3571V14.5482L15.9073 1.05934L12.8608 2.29019L18.4519 16.1285L7.89822 5.57486L5.57488 7.89822L15.6901 18.0134L2.58154 12.2862L1.26606 15.297L15.1364 21.3571H0V24.6429H15.1364L1.26606 30.7029L2.58154 33.7139L15.69 27.9866L5.57488 38.1018L7.89822 40.425L18.4519 29.8715L12.8608 43.7099L15.9073 44.9406L21.3571 31.4518V46H24.6429V31.4518L30.0927 44.9406L33.1391 43.7099L27.5483 29.8715L38.1018 40.425L40.425 38.1018L30.3099 27.9866L43.4185 33.7139L44.7338 30.7029L30.8637 24.6429H46V21.3571H30.8635L44.7338 15.297L43.4185 12.2862L30.3099 18.0134L40.425 7.8982L38.1018 5.57486L27.5483 16.1285L33.1391 2.29019L30.0927 1.05934L24.6429 14.5482V0Z" fill="#2563EB"/>
</svg>
