<svg width="46" height="46" viewBox="0 0 46 46" fill="none" xmlns="http://www.w3.org/2000/svg">
<g filter="url(#filter0_d_388_524)">
<path fill-rule="evenodd" clip-rule="evenodd" d="M25.3 0C26.5703 0 27.6 1.02974 27.6 2.3V6.34193C27.6 8.391 30.0773 9.41719 31.5263 7.96826L34.3843 5.11019C35.2827 4.21199 36.7388 4.21199 37.6372 5.11019L40.8899 8.36289C41.788 9.26109 41.788 10.7174 40.8899 11.6156L38.0316 14.4736C36.5829 15.9226 37.6089 18.4 39.658 18.4H43.7C44.9703 18.4 46 19.4297 46 20.7V25.3C46 26.5703 44.9703 27.6 43.7 27.6H39.658C37.6089 27.6 36.5829 30.0773 38.0316 31.5263L40.8899 34.3843C41.788 35.2827 41.788 36.7388 40.8899 37.6372L37.6372 40.8899C36.7388 41.788 35.2827 41.788 34.3843 40.8899L31.5263 38.0316C30.0773 36.5829 27.6 37.6089 27.6 39.658V43.7C27.6 44.9703 26.5703 46 25.3 46H20.7C19.4297 46 18.4 44.9703 18.4 43.7V39.658C18.4 37.6089 15.9226 36.5829 14.4736 38.0316L11.6156 40.8899C10.7174 41.788 9.26109 41.788 8.36289 40.8899L5.11021 37.6372C4.21199 36.7388 4.21199 35.2827 5.11021 34.3843L7.96828 31.5263C9.41719 30.0773 8.39102 27.6 6.34193 27.6H2.3C1.02975 27.6 0 26.5703 0 25.3V20.7C0 19.4297 1.02974 18.4 2.3 18.4H6.34193C8.391 18.4 9.41719 15.9226 7.96828 14.4736L5.11021 11.6156C4.21199 10.7174 4.21199 9.26109 5.11021 8.36289L8.36289 5.11019C9.26109 4.21199 10.7174 4.21199 11.6156 5.11019L14.4736 7.96826C15.9226 9.41719 18.4 8.391 18.4 6.34193V2.3C18.4 1.02974 19.4297 0 20.7 0H25.3ZM23 34.5C29.3512 34.5 34.5 29.3512 34.5 23C34.5 16.6487 29.3512 11.5 23 11.5C16.6487 11.5 11.5 16.6487 11.5 23C11.5 29.3512 16.6487 34.5 23 34.5Z" fill="#2563EB"/>
</g>
<defs>
<filter id="filter0_d_388_524" x="-4" y="0" width="54" height="54" filterUnits="userSpaceOnUse" color-interpolation-filters="sRGB">
<feFlood flood-opacity="0" result="BackgroundImageFix"/>
<feColorMatrix in="SourceAlpha" type="matrix" values="0 0 0 0 0 0 0 0 0 0 0 0 0 0 0 0 0 0 127 0" result="hardAlpha"/>
<feOffset dy="4"/>
<feGaussianBlur stdDeviation="2"/>
<feComposite in2="hardAlpha" operator="out"/>
<feColorMatrix type="matrix" values="0 0 0 0 0 0 0 0 0 0 0 0 0 0 0 0 0 0 0.25 0"/>
<feBlend mode="normal" in2="BackgroundImageFix" result="effect1_dropShadow_388_524"/>
<feBlend mode="normal" in="SourceGraphic" in2="effect1_dropShadow_388_524" result="shape"/>
</filter>
</defs>
</svg>
